/* XPM */
#ifndef _MACRORONI_24_XPM_
#define _MACRORONI_24_XPM_
static const char *macroroni_24_xpm[] = {
	"24 24 153 2",
	"  	c None",
	". 	c #ABABAB",
	"+ 	c #A8A8A8",
	"@ 	c #A9A9A9",
	"# 	c #B4B4B3",
	"$ 	c #B6B5B4",
	"% 	c #A5A5A5",
	"& 	c #A6A6A6",
	"* 	c #D6D4D2",
	"= 	c #DCDAD8",
	"- 	c #D5D4D2",
	"; 	c #A2A2A2",
	"> 	c #AEADAD",
	", 	c #D8D6D6",
	"' 	c #D6D5D4",
	") 	c #DED1B2",
	"! 	c #F3C351",
	"~ 	c #F1C358",
	"{ 	c #DED0B0",
	"] 	c #9F9F9F",
	"^ 	c #ABAAAA",
	"/ 	c #D5D4D3",
	"( 	c #D4D3D1",
	"_ 	c #D7D1C4",
	": 	c #F6C33D",
	"< 	c #FAA12D",
	"[ 	c #F99D2F",
	"} 	c #F9B02E",
	"| 	c #DCCFAF",
	"1 	c #9C9C9C",
	"2 	c #A7A7A6",
	"3 	c #D3D2D1",
	"4 	c #D1D0CF",
	"5 	c #EEC55E",
	"6 	c #FDBF1E",
	"7 	c #FAA62A",
	"8 	c #F99C2F",
	"9 	c #F1BE52",
	"0 	c #999999",
	"a 	c #A6A5A5",
	"b 	c #D1D0CE",
	"c 	c #CFCECC",
	"d 	c #DACAA1",
	"e 	c #FCBF20",
	"f 	c #FDBC1F",
	"g 	c #FAAA28",
	"h 	c #FAA52B",
	"i 	c #F3C043",
	"j 	c #969696",
	"k 	c #A3A2A2",
	"l 	c #CECDCC",
	"m 	c #CCCBCA",
	"n 	c #EEC254",
	"o 	c #E0C683",
	"p 	c #939393",
	"q 	c #9F9F9E",
	"r 	c #CCCBC9",
	"s 	c #CAC9C8",
	"t 	c #D0C7B4",
	"u 	c #FBBF23",
	"v 	c #F1C148",
	"w 	c #CAC8C6",
	"x 	c #909090",
	"y 	c #9D9C9C",
	"z 	c #C9C8C6",
	"A 	c #C7C7C5",
	"B 	c #DDC481",
	"C 	c #C09219",
	"D 	c #E0AE2B",
	"E 	c #ECB21C",
	"F 	c #B78F28",
	"G 	c #D9C48E",
	"H 	c #8D8D8D",
	"I 	c #9A9999",
	"J 	c #C7C5C4",
	"K 	c #C5C4C3",
	"L 	c #E7C15F",
	"M 	c #BC8E16",
	"N 	c #CA9918",
	"O 	c #4C3A09",
	"P 	c #C49517",
	"Q 	c #A78223",
	"R 	c #C6C4C0",
	"S 	c #8A8A8A",
	"T 	c #C3C3C1",
	"U 	c #C2C2C0",
	"V 	c #EDC04B",
	"W 	c #FBBD1E",
	"X 	c #E9C055",
	"Y 	c #878787",
	"Z 	c #949493",
	"` 	c #C1C1C0",
	" .	c #C0BFBE",
	"..	c #F1BF3D",
	"+.	c #E1BF69",
	"@.	c #848484",
	"#.	c #919090",
	"$.	c #BFBFBE",
	"%.	c #BDBDBC",
	"&.	c #F0BF3E",
	"*.	c #DFBE69",
	"=.	c #818181",
	"-.	c #8E8E8E",
	";.	c #BCBCBB",
	">.	c #BABAB9",
	",.	c #EEBD40",
	"'.	c #E4BE59",
	").	c #7E7E7E",
	"!.	c #8B8B8A",
	"~.	c #B8B8B7",
	"{.	c #E6BD52",
	"].	c #EFBE3B",
	"^.	c #7B7B7B",
	"/.	c #888787",
	"(.	c #B7B6B5",
	"_.	c #B5B5B4",
	":.	c #D9B969",
	"<.	c #C3B798",
	"[.	c #787878",
	"}.	c #858585",
	"|.	c #B5B4B3",
	"1.	c #B3B3B2",
	"2.	c #C5B691",
	"3.	c #FDBF1F",
	"4.	c #DABA66",
	"5.	c #757575",
	"6.	c #828281",
	"7.	c #B1B1B1",
	"8.	c #B0B0B0",
	"9.	c #EDBC3D",
	"0.	c #E7BB4B",
	"a.	c #737373",
	"b.	c #807F7F",
	"c.	c #AFAFAF",
	"d.	c #AEAEAD",
	"e.	c #C9B47D",
	"f.	c #F9BF25",
	"g.	c #C9B37C",
	"h.	c #707070",
	"i.	c #7C7B7B",
	"j.	c #ADADAD",
	"k.	c #D4B465",
	"l.	c #E9BB42",
	"m.	c #D5B562",
	"n.	c #B7AE95",
	"o.	c #6D6D6D",
	"p.	c #6E6E6E",
	"q.	c #6B6B6B",
	"r.	c #6A6A6A",
	"s.	c #797878",
	"t.	c #7A7979",
	"u.	c #676767",
	"v.	c #666666",
	". . . . . . . . . . . . . . . . . . . . . . . . ",
	"+ + @ # $ $ $ $ $ $ $ $ $ $ $ $ $ $ $ $ # @ + + ",
	"% & * = = = = = = = = = = = = = = = = = = - & % ",
	"; > , ' ' ' ' ' ' ' ' ) ! ~ { ' ' ' ' ' ' , > ; ",
	"] ^ / ( ( ( ( ( ( ( _ : < [ } | ( ( ( ( ( / ^ ] ",
	"1 2 3 4 4 4 4 4 4 4 5 6 7 8 8 9 4 4 4 4 4 3 2 1 ",
	"0 a b c c c c c c d e 6 f g h i c c c c c b a 0 ",
	"j k l m m m m m m n 6 6 6 6 6 o m m m m m l k j ",
	"p q r s s s s s t u 6 6 6 6 v w s s s s s r q p ",
	"x y z A A A A A B C D 6 E F G A A A A A A z y x ",
	"H I J K K K K K L M N O P Q R K K K K K K J I H ",
	"S j T U U U U U V 6 6 W 6 X U U U U U U U T j S ",
	"Y Z `  . . . . ...6 6 6 6 +. . . . . . . .` Z Y ",
	"@.#.$.%.%.%.%.%.&.6 6 6 6 *.%.%.%.%.%.%.%.$.#.@.",
	"=.-.;.>.>.>.>.>.,.6 6 6 6 '.>.>.>.>.>.>.>.;.-.=.",
	").!.>.~.~.~.~.~.{.6 6 6 6 ].~.~.~.~.~.~.~.>.!.).",
	"^./.(._._._._._.:.6 6 6 6 e <._._._._._._.(./.^.",
	"[.}.|.1.1.1.1.1.2.3.6 6 6 6 4.1.1.1.1.1.1.|.}.[.",
	"5.6.7.8.8.8.8.8.8.9.6 6 6 6 0.8.8.8.8.8.8.7.6.5.",
	"a.b.c.d.d.d.d.d.d.e.6 6 6 f.g.d.d.d.d.d.d.c.b.a.",
	"h.i.j.. . . . . . . k.l.m.n.. . . . . . . j.i.h.",
	"o.p.k . . . . . . . . . . . . . . . . . . k p.o.",
	"q.r.q.s.t.t.t.t.t.t.t.t.t.t.t.t.t.t.t.t.s.q.r.r.",
	"u.u.u.u.u.u.u.u.u.u.u.u.u.u.u.u.u.u.u.u.u.u.u.v."
};
#endif